<?xml version="1.0" standalone="no"?>
<!DOCTYPE svg PUBLIC "-//W3C//DTD SVG 20010904//EN"
 "http://www.w3.org/TR/2001/REC-SVG-20010904/DTD/svg10.dtd">
<svg version="1.0" xmlns="http://www.w3.org/2000/svg"
 width="700.000000pt" height="700.000000pt" viewBox="0 0 700.000000 700.000000"
 preserveAspectRatio="xMidYMid meet">
<metadata>
Created by potrace 1.14, written by Peter Selinger 2001-2017
</metadata>
<g transform="translate(0.000000,700.000000) scale(0.100000,-0.100000)"
fill="#000000" stroke="none">
<path d="M3447 6280 c-50 -129 -129 -334 -459 -1190 -49 -129 -96 -248 -103
-265 -7 -16 -18 -48 -25 -70 -7 -22 -16 -44 -20 -50 -4 -5 -14 -29 -21 -52
-14 -48 -23 -53 -40 -20 -42 80 -244 284 -364 367 -27 19 -52 38 -55 41 -12
14 -212 128 -290 166 -75 35 -232 98 -298 118 -20 6 -19 1 16 -45 72 -95 126
-211 178 -385 21 -70 60 -241 69 -300 1 -11 5 -36 9 -55 8 -49 14 -95 21 -165
3 -33 8 -71 10 -85 6 -32 16 -185 20 -306 2 -53 6 -98 9 -101 3 -4 634 -8
1401 -9 l1395 -3 1 37 c1 66 18 319 25 382 15 134 27 222 38 275 2 11 7 40 11
65 12 80 63 273 95 365 48 135 97 227 160 299 18 21 20 27 8 23 -9 -3 -34 -11
-56 -16 -36 -10 -130 -47 -213 -84 -19 -8 -41 -18 -49 -21 -31 -12 -168 -90
-235 -134 -165 -107 -319 -245 -422 -379 -31 -40 -59 -73 -62 -73 -4 0 -17 26
-28 58 -18 48 -152 400 -268 702 -43 113 -145 379 -240 625 -122 318 -153 399
-157 415 -3 8 -30 -50 -61 -130z m99 -1770 c34 -21 66 -98 72 -171 13 -176
-89 -299 -177 -215 -42 40 -60 106 -56 201 3 92 21 142 64 178 32 27 62 29 97
7z m-1028 -6 c27 -19 62 -75 80 -125 30 -87 18 -227 -21 -267 -22 -21 -65 -18
-92 8 -22 21 -67 99 -71 125 -19 109 -20 168 -3 213 23 60 63 77 107 46z
m2031 -5 c18 -19 23 -37 35 -124 10 -69 -52 -238 -98 -268 -97 -63 -145 146
-71 310 43 95 93 126 134 82z"/>
<path d="M2104 3519 c-2 -3 1 -21 7 -40 24 -80 53 -237 69 -374 9 -72 6 -319
-5 -390 -11 -70 -57 -228 -82 -278 -65 -131 -159 -239 -267 -309 l-61 -39 70
6 c209 19 428 88 613 194 105 61 306 245 335 308 14 30 23 29 32 -4 3 -16 22
-71 42 -123 93 -251 201 -475 327 -678 28 -46 56 -91 61 -101 26 -45 116 -165
179 -241 309 -371 652 -569 1031 -595 74 -6 78 -5 60 10 -184 144 -313 298
-412 493 -177 348 -211 707 -111 1162 11 52 22 98 25 102 2 5 16 -5 31 -20 15
-16 68 -60 117 -98 78 -61 122 -91 255 -173 60 -37 228 -113 318 -145 86 -30
184 -55 277 -71 49 -8 205 -18 205 -13 0 3 -28 22 -62 44 -173 106 -340 285
-418 448 -68 142 -90 278 -69 426 19 139 67 256 167 410 30 47 53 87 51 90 -6
7 -2780 6 -2785 -1z"/>
<path d="M5387 2303 c-3 -10 -9 -37 -12 -61 -5 -34 -17 -52 -57 -90 l-50 -47
34 -8 c18 -4 43 -8 56 -9 22 0 102 -72 102 -90 0 -12 25 -4 26 8 8 77 19 101
67 146 l50 46 -62 13 c-55 10 -66 17 -105 61 -37 42 -45 47 -49 31z"/>
<path d="M1529 2193 c-6 -16 -13 -41 -16 -56 -4 -17 -23 -42 -52 -64 -25 -21
-50 -40 -55 -44 -4 -4 19 -15 52 -24 56 -16 65 -22 98 -71 21 -30 39 -54 40
-54 2 0 11 28 20 61 15 54 23 66 66 96 26 19 48 38 48 42 0 4 -26 16 -58 25
-51 16 -63 25 -92 67 -18 27 -35 49 -37 49 -2 0 -8 -12 -14 -27z"/>
<path d="M4736 845 c-44 -29 -55 -33 -100 -28 -28 2 -57 6 -65 9 -17 5 -11
-11 25 -68 27 -42 33 -97 18 -150 -8 -26 9 -22 63 12 45 29 53 30 111 24 l63
-6 -34 58 c-32 55 -34 63 -28 117 4 32 5 60 2 62 -4 2 -28 -12 -55 -30z"/>
</g>
</svg>
